Coordinates
version=1
nRows=29
nColumns=22
inDegrees=yes

Units are S.I. units (second, meters, Newtons, ...)
If the header above contains a line with 'inDegrees', this indicates whether rotational values are in degrees (yes) or radians (no).

endheader
time	pelvis_tilt	pelvis_list	pelvis_rotation	pelvis_tx	pelvis_ty	pelvis_tz	hip_flexion_r	hip_adduction_r	hip_rotation_r	knee_angle_r	ankle_angle_r	subtalar_angle_r	hip_flexion_l	hip_adduction_l	hip_rotation_l	knee_angle_l	ankle_angle_l	subtalar_angle_l	lumbar_extension	lumbar_bending	lumbar_rotation
      4.05000000	     -2.68287629	     -0.38747625	     83.33625895	      0.43883477	      0.90511219	     -0.28236896	     25.02441720	     -3.14201643	      3.81917304	    -11.17268313	     -3.28147786	      6.68527485	     -9.55541556	      6.36779955	     16.08254223	    -19.42598963	     17.86568058	     -5.89882928	     -5.97953978	     -8.39199740	    -10.67333366
      4.06000000	     -2.40135221	     -0.58267724	     83.63125504	      0.44206837	      0.90524167	     -0.29042219	     25.12709995	     -2.72748666	      3.62695797	    -12.04243546	     -3.92186156	      6.12310729	     -9.76656380	      5.85115993	     16.22088125	    -19.70205431	     17.46124150	     -5.71307221	     -5.65269201	     -7.92008287	    -10.50130576
      4.07000000	     -2.06624670	     -0.75183291	     83.95915484	      0.44509989	      0.90567142	     -0.29851857	     25.19851245	     -2.34082508	      3.13944634	    -12.94099569	     -4.40298203	      5.93790313	     -9.93860973	      5.30120330	     16.35001266	    -20.08845416	     16.92285546	     -5.61496292	     -5.36208369	     -7.36883423	    -10.34960998
      4.08000000	     -1.65592130	     -0.94101400	     84.32882836	      0.44793092	      0.90629815	     -0.30668853	     25.25041181	     -1.94906213	      2.43499157	    -13.81761407	     -4.63212866	      5.87442093	    -10.03687492	      4.68177318	     16.49015495	    -20.56027198	     16.34244885	     -5.31536087	     -5.04239812	     -6.70291744	    -10.24499255
      4.09000000	     -1.20309511	     -1.09452655	     84.73797536	      0.45060844	      0.90719947	     -0.31483365	     25.19491970	     -1.57431741	      1.61914898	    -14.59544302	     -4.68586617	      6.12649162	    -10.07584187	      4.03559656	     16.61073828	    -21.17800759	     15.62451037	     -5.04502587	     -4.77382412	     -5.98639123	    -10.17234509
      4.10000000	     -0.71258363	     -1.21691955	     85.17048031	      0.45319285	      0.90834696	     -0.32295361	     25.02069730	     -1.19041720	      0.79672749	    -15.23982355	     -4.59030905	      6.63457354	    -10.06764546	      3.35853218	     16.69116010	    -21.89699371	     14.76910926	     -4.66108850	     -4.54090770	     -5.22302422	    -10.14915203
      4.11000000	     -0.21522240	     -1.28931918	     85.62218663	      0.45572218	      0.90974314	     -0.33100478	     24.68596419	     -0.80753057	      0.02658910	    -15.69177149	     -4.36830745	      7.26890209	    -10.01127978	      2.68552142	     16.72980736	    -22.74302892	     13.76083699	     -4.21924724	     -4.37005351	     -4.46511317	    -10.12465031
      4.12000000	      0.28145800	     -1.34039592	     86.11628515	      0.45819297	      0.91129985	     -0.33897181	     24.23776059	     -0.42600214	     -0.74444845	    -15.97707822	     -4.05174632	      7.75722325	     -9.87404697	      2.01583659	     16.76587895	    -23.71192378	     12.67492166	     -3.91392579	     -4.22504005	     -3.72143710	    -10.15523088
      4.13000000	      0.75534960	     -1.33525593	     86.59799899	      0.46071743	      0.91304176	     -0.34685607	     23.64901132	     -0.02997550	     -1.37726229	    -16.09685868	     -3.70354149	      8.34003702	     -9.72974321	      1.36890312	     16.75661820	    -24.72611442	     11.36949132	     -3.39384180	     -4.14115249	     -3.02335048	    -10.20821593
      4.14000000	      1.15916730	     -1.31736461	     87.12943237	      0.46313818	      0.91482405	     -0.35452766	     22.99371144	      0.29964812	     -2.04209067	    -16.07820773	     -3.33901794	      8.66830734	     -9.43612641	      0.79943588	     16.70315993	    -25.93404552	      9.96527187	     -3.07023895	     -4.08738050	     -2.42521168	    -10.28962848
      4.15000000	      1.51915948	     -1.27071604	     87.67523047	      0.46554289	      0.91665917	     -0.36205130	     22.22989120	      0.61964715	     -2.59502931	    -15.88708913	     -2.94873708	      8.96132859	     -9.07670806	      0.27426696	     16.64072132	    -27.22488872	      8.37614282	     -2.56319000	     -4.07146470	     -1.89351734	    -10.40401116
      4.16000000	      1.81587933	     -1.23528786	     88.26244480	      0.46785476	      0.91841758	     -0.36936248	     21.44757572	      0.88497532	     -3.20170404	    -15.59743480	     -2.57410547	      9.07479019	     -8.55969046	     -0.18945726	     16.53573887	    -28.67115770	      6.65937194	     -2.18222080	     -4.05521760	     -1.45201193	    -10.52491493
      4.17000000	      2.06096218	     -1.20582434	     88.91029989	      0.47001563	      0.92008039	     -0.37641618	     20.63082843	      1.10168834	     -3.83071296	    -15.19080374	     -2.23645506	      9.08504480	     -7.87269502	     -0.60295096	     16.40701443	    -30.29671199	      4.83229822	     -1.93286041	     -4.05484066	     -1.07782014	    -10.70551813
      4.18000000	      2.26461607	     -1.18037774	     89.58297493	      0.47208844	      0.92163101	     -0.38326958	     19.78324309	      1.28898508	     -4.49069314	    -14.68105778	     -1.90827867	      9.05483130	     -7.04667802	     -0.98362911	     16.21497544	    -32.05526751	      2.85584555	     -1.77961611	     -4.06093240	     -0.76409496	    -10.85714842
      4.19000000	      2.45379084	     -1.16712538	     90.30662869	      0.47403178	      0.92300997	     -0.38982897	     18.93545937	      1.46673060	     -5.16862041	    -14.10370180	     -1.60118128	      8.96851655	     -6.03657831	     -1.35899348	     15.99117967	    -34.00456368	      0.80512057	     -1.62977431	     -4.08141067	     -0.47349946	    -11.05584585
      4.20000000	      2.63875183	     -1.20062792	     91.06508421	      0.47585157	      0.92414567	     -0.39610081	     18.14769062	      1.64538409	     -5.84255695	    -13.50109698	     -1.26731262	      8.83034423	     -4.80631779	     -1.74271057	     15.70250581	    -36.13829873	     -1.31738599	     -1.56172398	     -4.06890073	     -0.19004325	    -11.24262480
      4.21000000	      2.83276137	     -1.21469054	     91.83552719	      0.47757221	      0.92515134	     -0.40209913	     17.36394054	      1.83917782	     -6.53334671	    -12.89503856	     -0.97943271	      8.73901362	     -3.44337944	     -2.15439629	     15.32147742	    -38.42442849	     -3.50644398	     -1.64759441	     -4.10384328	      0.10264184	    -11.39845017
      4.22000000	      3.04905079	     -1.26090509	     92.60318743	      0.47922303	      0.92592703	     -0.40784652	     16.65417401	      2.06435547	     -7.20367895	    -12.31232801	     -0.64811069	      8.65491319	     -1.89654427	     -2.61231174	     14.83189177	    -40.85501134	     -5.72161228	     -1.89272536	     -4.11204375	      0.41810188	    -11.49512073
      4.23000000	      3.29908556	     -1.29317453	     93.35638648	      0.48082078	      0.92655120	     -0.41332571	     15.99068421	      2.33522384	     -7.83812532	    -11.78684635	     -0.32799901	      8.59255101	     -0.22782606	     -3.13228709	     14.24610045	    -43.40436771	     -7.95200911	     -2.27451888	     -4.15411514	      0.77425235	    -11.53377102
      4.24000000	      3.57912916	     -1.30792479	     94.07123874	      0.48239734	      0.92703758	     -0.41858506	     15.38082021	      2.65209328	     -8.43041946	    -11.34239867	      0.00706091	      8.54354208	      1.52918174	     -3.71399016	     13.56256707	    -46.02483551	    -10.19527628	     -2.81460864	     -4.22362804	      1.16669851	    -11.48215584
      4.25000000	      3.90898979	     -1.30901225	     94.75344255	      0.48397840	      0.92739875	     -0.42368149	     14.78883265	      3.04487830	     -8.94835561	    -10.90194712	      0.30051115	      8.49923412	      3.35015433	     -4.37710828	     12.84213101	    -48.67622730	    -12.38010634	     -3.37835284	     -4.30334062	      1.61355550	    -11.35903226
      4.26000000	      4.26520254	     -1.28242884	     95.37488858	      0.48556940	      0.92767348	     -0.42862335	     14.22427232	      3.49103868	     -9.38243664	    -10.51599885	      0.57083910	      8.44021735	      5.18299918	     -5.08505471	     12.10555629	    -51.30839176	    -14.48840924	     -3.96256073	     -4.41096341	      2.09440198	    -11.13615104
      4.27000000	      4.62788344	     -1.22249302	     95.91990977	      0.48721195	      0.92790611	     -0.43349492	     13.65521783	      3.97658368	     -9.75129213	    -10.14691275	      0.81593204	      8.35192683	      6.97141655	     -5.81578815	     11.37297195	    -53.86023386	    -16.42899266	     -4.45615511	     -4.54234614	      2.57750532	    -10.81123028
      4.28000000	      4.98230512	     -1.12910189	     96.37870466	      0.48889972	      0.92811975	     -0.43827487	     13.09356334	      4.48360012	    -10.05510503	     -9.82139199	      1.03072359	      8.21022347	      8.68247050	     -6.52521346	     10.70133499	    -56.29824317	    -18.12300466	     -4.82969543	     -4.70597311	      3.04777547	    -10.36721916
      4.29000000	      5.33304216	     -1.00888135	     96.76339112	      0.49061101	      0.92833640	     -0.44301220	     12.49167504	      5.02195728	    -10.24411755	     -9.44466817	      1.18323017	      8.02614177	     10.29370484	     -7.20013453	     10.13380294	    -58.59264761	    -19.41117150	     -4.88788308	     -4.88324480	      3.51226036	     -9.85050932
      4.30000000	      5.64463852	     -0.86903365	     97.06072202	      0.49235170	      0.92857520	     -0.44768438	     11.88231339	      5.54457017	    -10.37795202	     -9.07503489	      1.30052305	      7.78026196	     11.78883672	     -7.79132479	      9.65034684	    -60.71795628	    -20.25025600	     -4.74706846	     -5.07735656	      3.92586724	     -9.24289550
      4.31000000	      5.91479284	     -0.69048905	     97.27784415	      0.49409842	      0.92890045	     -0.45227415	     11.22873502	      6.04935644	    -10.44786470	     -8.68551584	      1.33396148	      7.54165425	     13.13511181	     -8.28650009	      9.25437616	    -62.65620407	    -20.60374954	     -4.44557086	     -5.31604010	      4.29034850	     -8.56435585
      4.32000000	      6.13897081	     -0.54427201	     97.42354734	      0.49584887	      0.92919644	     -0.45676194	     10.60972250	      6.51683858	    -10.47980885	     -8.28448011	      1.35926507	      7.18307996	     14.40959658	     -8.66814091	      8.93231486	    -64.41285548	    -20.38300834	     -4.01761554	     -5.51274869	      4.58905905	     -7.84350440
      4.33000000	      6.30090937	     -0.38855135	     97.51178491	      0.49755269	      0.92955913	     -0.46111142	      9.98166058	      6.92627045	    -10.47878935	     -7.88177821	      1.35144027	      6.77052597	     15.56348275	     -8.91587359	      8.68122670	    -65.96858135	    -19.68733130	     -3.53152525	     -5.72959100	      4.81567100	     -7.09333847
